<svg xmlns="http://www.w3.org/2000/svg" xmlns:xlink="http://www.w3.org/1999/xlink" fill="none" version="1.1" width="134" height="48" viewBox="0 0 134 48"><g><g><g style="opacity:0;"><path d="M0,48L134,48L134,0L0,0L0,48Z" fill="#D8D8D8" fill-opacity="1"/></g><g><g><g><path d="M60.5009,14.661290000000001L61.0745,14.661290000000001C66.6769,14.72791,67.2005,18.1002,65.9122,23.8206C64.7485,28.9498,62.5873,32.855000000000004,56.9517,32.838300000000004C53.9094,32.838300000000004,52.7956,32.0056,52.3467,30.8399L50.4931,39L44.2091,39L49.6951,14.85281L55.9542,14.92775C57.2776,14.75864,58.6099,14.66966,59.944,14.661290000000001L60.5009,14.661290000000001ZM111.612,15.58555L118.603,15.66882L119.517,26.3186L119.717,26.3186L125.136,15.76873L131.994,15.84367L123.067,30.3653C118.487,37.7926,115.91,38.9584,108.994,38.9584L110.166,33.7459C113.075,33.7459,114.164,33.321200000000005,114.63,32.4386L111.612,15.58555ZM92.1619,15.36073L98.4293,15.43567L96.1102,25.6774C95.6614,27.6841,96.1102,28.1754,98.0636,28.1754C99.1736,28.2919,100.2502,27.7526,100.8232,26.7932L103.408,15.493960000000001L109.634,15.5689L105.786,32.6468L99.9671,32.6468L99.9671,30.8982C98.8117,32.063900000000004,97.1576,32.9216,94.1486,32.9132C89.9177,32.9132,88.596,31.1397,89.5187,27.0846L92.1619,15.36073ZM72.6034,8L78.8625,8.0999194L76.9258,16.61805C77.8152,15.78539,79.4693,14.86946,82.3785,14.90277C87.9809,14.97771,88.5129,18.3084,87.2411,23.9371C86.0941,29.0164,83.9163,32.8799,78.3056,32.863299999999995C74.9807,32.863299999999995,73.8835,31.9474,73.576,30.5318L72.8279,32.5219L67.0094,32.5219L72.6034,8ZM37.2934,14.36986L37.5677,14.36986C43.2366,14.43648,46.2373,16.37658,44.5832,23.6207C42.929,30.8649,39.0722,32.78,33.386700000000005,32.7301C27.7012,32.680099999999996,24.6922,30.79,26.3629,23.4792C27.9755,16.40988,31.6495,14.428149999999999,37.0191,14.36986L37.2934,14.36986ZM15.873,8.999194L16.130699999999997,8.999194C16.964399999999998,9.00549,17.7971,9.06109,18.6243,9.16573C18.7573,9.32393,18.7074,9.49046,18.4664,9.64867L18.4248,9.64867C16.6662,10.49258,15.4794,12.19996,15.2994,14.14504L15.2994,14.09508C15.307,14.2072,15.2336,14.308720000000001,15.1249,14.33656L14.7592,14.33656C11.75016,14.33656,10.70283,15.87698,9.57237,20.8063C8.44192,25.7357,8.83259,27.2178,11.97459,27.2345C15.1166,27.2511,16.2055,25.8023,17.3276,20.872999999999998C17.444000000000003,20.381700000000002,17.5354,19.9237,17.618499999999997,19.4907C17.662100000000002,19.4256,17.732,19.383,17.8097,19.374200000000002C17.926099999999998,19.4574,18.0508,19.524,18.1755,19.599C20.1385,20.6478,22.5385,20.4113,24.26,18.999499999999998C24.4096,18.999499999999998,24.501,19.082700000000003,24.5426,19.2909C24.4511,19.8071,24.3431,20.34,24.2184,20.9063C22.0655,30.332,17.5687,32.663399999999996,10.71945,32.6468C3.87024,32.6301,0.4705600000000001,30.2654,2.648348,20.7314C4.76795,11.505510000000001,9.1152,9.0325,15.5904,8.999194L15.873,8.999194ZM79.0454,19.2409C76.5517,19.2409,75.654,20.7897,74.9641,23.845599999999997C74.3157,26.7099,74.4571,28.4169,76.9673,28.4252C79.4776,28.4335,80.2922,26.5517,80.9405,23.8872C81.539,21.064500000000002,81.5556,19.265900000000002,79.0121,19.2409L79.0454,19.2409ZM57.6914,19.0328C55.1978,19.0328,54.2918,20.5982,53.5935,23.6873C52.9369,26.5767,53.0699,28.3003,55.5802,28.3169C58.0904,28.3336,58.9549,26.4185,59.57,23.729C60.2266,20.8813,60.235,19.0577,57.6914,19.0328ZM36.5536,18.8246C34.4423,18.8246,33.528,19.9071,32.7051,23.5208C31.8822,27.1346,32.297799999999995,28.1837,34.4174,28.192C36.537,28.2004,37.4264,27.1512,38.2493,23.5708C39.0722,19.990299999999998,38.6649,18.8246,36.5536,18.8246ZM20.7605,10.69782C23.0559,10.69782,24.9166,12.5618,24.9166,14.86113C24.9166,17.16047,23.0559,19.0244,20.7605,19.0244C18.4652,19.0244,16.6045,17.16047,16.6045,14.86113C16.609,12.55527,18.4836,10.692309999999999,20.7855,10.706150000000001L20.7605,10.69782Z" fill="#FF186B" fill-opacity="1"/></g></g></g></g></g></svg>