<svg xmlns="http://www.w3.org/2000/svg" xmlns:xlink="http://www.w3.org/1999/xlink" fill="none" version="1.1" width="16" height="16" viewBox="0 0 16 16"><defs><mask id="master_svg0_2_4775/2_2272" style="mask-type:alpha" maskUnits="objectBoundingBox"><g><rect x="0" y="0" width="16" height="16" rx="0" fill="#FFFFFF" fill-opacity="1"/></g></mask></defs><g mask="url(#master_svg0_2_4775/2_2272)"><g><path d="M14,7.5Q14,7.65957,13.9922,7.81894Q13.9843,7.97831,13.9687,8.13711Q13.9531,8.29591,13.9296,8.45375Q13.9062,8.61159,13.8751,8.76809Q13.844,8.92459,13.8052,9.07937Q13.7664,9.23415,13.7201,9.38685Q13.6738,9.53954,13.62,9.68978Q13.5663,9.84002,13.5052,9.98744Q13.4442,10.13486,13.3759,10.27911Q13.3077,10.42335,13.2325,10.56408Q13.1573,10.7048,13.0752,10.84167Q12.9932,10.97853,12.9045,11.1112Q12.8159,11.2439,12.7208,11.372Q12.6258,11.5002,12.5246,11.6236Q12.4233,11.7469,12.3162,11.8651Q12.209,11.9834,12.0962,12.0962Q11.9834,12.209,11.8651,12.3162Q11.7469,12.4233,11.6236,12.5246Q11.5002,12.6258,11.372,12.7208Q11.2439,12.8159,11.1112,12.9046Q10.97853,12.9932,10.84167,13.0752Q10.7048,13.1573,10.56408,13.2325Q10.42335,13.3077,10.27911,13.3759Q10.13486,13.4442,9.98744,13.5052Q9.84002,13.5663,9.68978,13.62Q9.53954,13.6738,9.38685,13.7201Q9.23415,13.7664,9.07937,13.8052Q8.92459,13.844,8.76809,13.8751Q8.61159,13.9062,8.45375,13.9296Q8.29591,13.9531,8.13711,13.9687Q7.97831,13.9843,7.81894,13.9922Q7.65957,14,7.5,14Q7.34043,14,7.18106,13.9922Q7.02169,13.9843,6.86289,13.9687Q6.70409,13.9531,6.54625,13.9296Q6.38841,13.9062,6.23191,13.8751Q6.07541,13.844,5.92063,13.8052Q5.76584,13.7664,5.61315,13.7201Q5.46045,13.6738,5.31021,13.62Q5.15998,13.5663,5.01256,13.5052Q4.86514,13.4442,4.72089,13.3759Q4.57665,13.3077,4.435919999999999,13.2325Q4.2951999999999995,13.1573,4.158329999999999,13.0752Q4.02147,12.9932,3.88879,12.9045Q3.75612,12.8159,3.62795,12.7208Q3.49979,12.6258,3.37644,12.5246Q3.2531,12.4233,3.13487,12.3162Q3.01664,12.209,2.90381,12.0962Q2.7909800000000002,11.9834,2.68382,11.8651Q2.57666,11.7469,2.4754300000000002,11.6236Q2.3742,11.5002,2.27915,11.372Q2.1841,11.2439,2.09545,11.1112Q2.0068,10.97853,1.9247640000000001,10.84167Q1.8427310000000001,10.7048,1.767512,10.56408Q1.692293,10.42335,1.6240700000000001,10.27911Q1.5558459999999998,10.13486,1.494783,9.98744Q1.43372,9.84002,1.379964,9.68978Q1.3262070000000001,9.53954,1.2798880000000001,9.38685Q1.233568,9.23415,1.1947969999999999,9.07937Q1.156025,8.92459,1.124896,8.76809Q1.0937659,8.61159,1.0703527,8.45375Q1.0469395,8.29591,1.0312993,8.13711Q1.0156591,7.97831,1.00782953,7.81894Q1,7.65957,1,7.5Q1,7.34043,1.00782953,7.18106Q1.0156591,7.02169,1.0312993,6.86289Q1.0469395,6.70409,1.0703527,6.54625Q1.0937659,6.38841,1.124896,6.23191Q1.156025,6.07541,1.1947969999999999,5.92063Q1.233568,5.76584,1.2798880000000001,5.61315Q1.3262070000000001,5.46045,1.379964,5.31021Q1.43372,5.15998,1.494783,5.01256Q1.5558459999999998,4.86514,1.6240700000000001,4.72089Q1.692293,4.57665,1.767512,4.435919999999999Q1.8427310000000001,4.2951999999999995,1.9247640000000001,4.158329999999999Q2.0068,4.02147,2.09545,3.88879Q2.1841,3.75612,2.27915,3.62795Q2.3742,3.49979,2.4754300000000002,3.37644Q2.57666,3.2531,2.68382,3.13487Q2.7909800000000002,3.01664,2.90381,2.90381Q3.01664,2.7909800000000002,3.13487,2.68382Q3.2531,2.57666,3.37644,2.4754300000000002Q3.49979,2.3742,3.62795,2.27915Q3.75612,2.1841,3.88879,2.09545Q4.02147,2.0068,4.158329999999999,1.9247640000000001Q4.2951999999999995,1.8427310000000001,4.435919999999999,1.767512Q4.57665,1.692293,4.72089,1.6240700000000001Q4.86514,1.5558459999999998,5.01256,1.494783Q5.15998,1.43372,5.31022,1.379964Q5.46045,1.3262070000000001,5.61315,1.2798880000000001Q5.76584,1.233568,5.92063,1.1947969999999999Q6.07541,1.156025,6.23191,1.124896Q6.38841,1.0937659,6.54625,1.0703527Q6.70409,1.0469395,6.86289,1.0312993Q7.02169,1.0156591,7.18106,1.00782953Q7.34043,1,7.5,1Q7.65957,1,7.81894,1.00782953Q7.97831,1.0156591,8.13711,1.0312993Q8.29591,1.0469395,8.45375,1.0703527Q8.61159,1.0937659,8.76809,1.124896Q8.92459,1.156025,9.07937,1.1947969999999999Q9.23415,1.233568,9.38685,1.2798880000000001Q9.53954,1.3262070000000001,9.68978,1.379964Q9.84002,1.43372,9.98744,1.494783Q10.13486,1.5558459999999998,10.27911,1.6240700000000001Q10.42335,1.692293,10.56408,1.767512Q10.7048,1.8427310000000001,10.84167,1.9247640000000001Q10.97853,2.0068,11.1112,2.09545Q11.2439,2.1841,11.372,2.27915Q11.5002,2.3742,11.6236,2.4754300000000002Q11.7469,2.57666,11.8651,2.68382Q11.9834,2.7909800000000002,12.0962,2.90381Q12.209,3.01664,12.3162,3.13487Q12.4233,3.2531,12.5246,3.37644Q12.6258,3.49979,12.7208,3.62795Q12.8159,3.75612,12.9046,3.88879Q12.9932,4.02147,13.0752,4.158329999999999Q13.1573,4.2951999999999995,13.2325,4.435919999999999Q13.3077,4.57665,13.3759,4.72089Q13.4442,4.86514,13.5052,5.01256Q13.5663,5.15998,13.62,5.31022Q13.6738,5.46045,13.7201,5.61315Q13.7664,5.76584,13.8052,5.92063Q13.844,6.07541,13.8751,6.23191Q13.9062,6.38841,13.9296,6.54625Q13.9531,6.70409,13.9687,6.86289Q13.9843,7.02169,13.9922,7.18106Q14,7.34043,14,7.5ZM13,7.5Q13,7.36498,12.9934,7.23013Q12.9867,7.09527,12.9735,6.96091Q12.9603,6.82654,12.9405,6.69298Q12.9207,6.55943,12.8943,6.427Q12.868,6.29458,12.8352,6.16361Q12.8024,6.03264,12.7632,5.90343Q12.724,5.77423,12.6785,5.6471Q12.633,5.51998,12.5813,5.39524Q12.5297,5.2705,12.4719,5.14845Q12.4142,5.02639,12.3506,4.90732Q12.2869,4.78824,12.2175,4.67243Q12.1481,4.55663,12.0731,4.44436Q11.9981,4.3321000000000005,11.9176,4.22365Q11.8372,4.115209999999999,11.7516,4.01084Q11.6659,3.90647,11.5752,3.80643Q11.4846,3.70638,11.3891,3.61091Q11.2936,3.51544,11.1936,3.42477Q11.0935,3.3341,10.98916,3.24844Q10.88479,3.16279,10.77635,3.08236Q10.6679,3.00193,10.55564,2.92692Q10.44337,2.85191,10.32756,2.78249Q10.21175,2.7130799999999997,10.09268,2.6494299999999997Q9.97361,2.5857900000000003,9.85155,2.52806Q9.7295,2.4703299999999997,9.60476,2.41866Q9.48002,2.36699,9.35289,2.32151Q9.22577,2.27602,9.09657,2.2368300000000003Q8.96736,2.19763,8.83639,2.1648300000000003Q8.70542,2.13202,8.573,2.10568Q8.440570000000001,2.07934,8.30702,2.05953Q8.17346,2.03972,8.03909,2.0264800000000003Q7.90473,2.01325,7.76987,2.00662Q7.63502,2,7.5,2Q7.36498,2,7.23013,2.00662Q7.09527,2.01325,6.96091,2.0264800000000003Q6.82654,2.03972,6.69298,2.05953Q6.55943,2.07934,6.427,2.10568Q6.29458,2.13202,6.16361,2.1648300000000003Q6.03264,2.19763,5.90343,2.2368300000000003Q5.77423,2.27602,5.6471,2.32151Q5.51998,2.36699,5.39524,2.41866Q5.2705,2.4703299999999997,5.14845,2.52806Q5.02639,2.5857900000000003,4.90732,2.6494299999999997Q4.78824,2.7130799999999997,4.67243,2.78249Q4.55663,2.85191,4.44436,2.92692Q4.3321000000000005,3.00193,4.22365,3.08236Q4.115209999999999,3.16279,4.01084,3.24844Q3.90647,3.3341,3.80643,3.42477Q3.70638,3.51544,3.61091,3.61091Q3.51544,3.70638,3.42477,3.80643Q3.3341,3.90647,3.24844,4.01084Q3.16279,4.115209999999999,3.08236,4.22365Q3.00193,4.3321000000000005,2.92692,4.44436Q2.85191,4.55663,2.78249,4.67243Q2.7130799999999997,4.78824,2.6494299999999997,4.90732Q2.5857900000000003,5.02639,2.52806,5.14845Q2.4703299999999997,5.2705,2.41866,5.39524Q2.36699,5.51998,2.32151,5.6471Q2.27602,5.77423,2.2368300000000003,5.90343Q2.19763,6.03264,2.1648300000000003,6.16361Q2.13202,6.29458,2.10568,6.427Q2.07934,6.55943,2.05953,6.69298Q2.03972,6.82654,2.0264800000000003,6.96091Q2.01325,7.09527,2.00662,7.23013Q2,7.36498,2,7.5Q2,7.63502,2.00662,7.76987Q2.01325,7.90473,2.0264800000000003,8.03909Q2.03972,8.17346,2.05953,8.30702Q2.07934,8.440570000000001,2.10568,8.573Q2.13202,8.70542,2.1648300000000003,8.83639Q2.19763,8.96736,2.2368300000000003,9.09657Q2.27602,9.22577,2.32151,9.35289Q2.36699,9.48002,2.41866,9.60476Q2.4703299999999997,9.7295,2.52806,9.85155Q2.5857900000000003,9.97361,2.6494299999999997,10.09268Q2.7130799999999997,10.21175,2.78249,10.32756Q2.85191,10.44337,2.92692,10.55564Q3.00193,10.6679,3.08236,10.77635Q3.16279,10.88479,3.24844,10.98916Q3.3341,11.0935,3.42477,11.1936Q3.51544,11.2936,3.61091,11.3891Q3.70638,11.4846,3.80643,11.5752Q3.90647,11.6659,4.01084,11.7516Q4.115209999999999,11.8372,4.22365,11.9176Q4.3321000000000005,11.9981,4.44436,12.0731Q4.55663,12.1481,4.67243,12.2175Q4.78824,12.2869,4.90732,12.3506Q5.02639,12.4142,5.14845,12.4719Q5.2705,12.5297,5.39524,12.5813Q5.51998,12.633,5.6471,12.6785Q5.77423,12.724,5.90343,12.7632Q6.03264,12.8024,6.16361,12.8352Q6.29458,12.868,6.427,12.8943Q6.55943,12.9207,6.69298,12.9405Q6.82654,12.9603,6.96091,12.9735Q7.09527,12.9867,7.23013,12.9934Q7.36498,13,7.5,13Q7.63502,13,7.76987,12.9934Q7.90473,12.9867,8.03909,12.9735Q8.17346,12.9603,8.30702,12.9405Q8.440570000000001,12.9207,8.573,12.8943Q8.70542,12.868,8.83639,12.8352Q8.96736,12.8024,9.09657,12.7632Q9.22577,12.724,9.35289,12.6785Q9.48002,12.633,9.60476,12.5813Q9.7295,12.5297,9.85155,12.4719Q9.97361,12.4142,10.09268,12.3506Q10.21175,12.2869,10.32756,12.2175Q10.44337,12.1481,10.55564,12.0731Q10.6679,11.9981,10.77635,11.9176Q10.88479,11.8372,10.98916,11.7516Q11.0935,11.6659,11.1936,11.5752Q11.2936,11.4846,11.3891,11.3891Q11.4846,11.2936,11.5752,11.1936Q11.6659,11.0935,11.7516,10.98916Q11.8372,10.88479,11.9176,10.77635Q11.9981,10.6679,12.0731,10.55564Q12.1481,10.44337,12.2175,10.32756Q12.2869,10.21175,12.3506,10.09268Q12.4142,9.97361,12.4719,9.85155Q12.5297,9.7295,12.5813,9.60476Q12.633,9.48002,12.6785,9.35289Q12.724,9.22577,12.7632,9.09657Q12.8024,8.96736,12.8352,8.83639Q12.868,8.70542,12.8943,8.573Q12.9207,8.440570000000001,12.9405,8.30702Q12.9603,8.17346,12.9735,8.03909Q12.9867,7.90473,12.9934,7.76987Q13,7.63502,13,7.5Z" fill="#222222" fill-opacity="1"/></g><g><path d="M12.353613,11.646506L15.35329,14.64619L15.35355,14.64645Q15.42388,14.71677,15.46194,14.80866Q15.5,14.90054,15.5,15Q15.5,15.04925,15.49039,15.09754Q15.48078,15.14584,15.46194,15.19134Q15.44309,15.23684,15.41573,15.27778Q15.38837,15.31873,15.35355,15.35355Q15.31873,15.38837,15.27778,15.41573Q15.23684,15.44309,15.19134,15.46194Q15.14584,15.48078,15.09754,15.49039Q15.04925,15.5,15,15.5Q14.90054,15.5,14.80866,15.46194Q14.71677,15.42388,14.64645,15.35355L14.64619,15.35329L11.646506,12.353613L11.646447,12.353553Q11.57612,12.283227,11.53806,12.191342Q11.5,12.0994562,11.5,12Q11.5,11.9507543,11.509607,11.9024549Q11.519214999999999,11.854155,11.53806,11.808658Q11.556906,11.763161,11.584265,11.722215Q11.611625,11.681269,11.646447,11.646447Q11.681269,11.611625,11.722215,11.584265Q11.763161,11.556906,11.808658,11.53806Q11.854155,11.519214999999999,11.9024549,11.509607Q11.9507543,11.5,12,11.5Q12.0994562,11.5,12.191342,11.53806Q12.283227,11.57612,12.353553,11.646447L12.353613,11.646506Z" fill-rule="evenodd" fill="#222222" fill-opacity="1"/></g></g></svg>