<svg xmlns="http://www.w3.org/2000/svg" xmlns:xlink="http://www.w3.org/1999/xlink" fill="none" version="1.1" width="24" height="24" viewBox="0 0 24 24"><defs><mask id="master_svg0_10_269/2_1281" style="mask-type:alpha" maskUnits="objectBoundingBox"><g><ellipse cx="12" cy="12" rx="11" ry="11" fill="#FFFFFF" fill-opacity="1"/></g></mask><mask id="master_svg1_10_269/2_1286" style="mask-type:alpha" maskUnits="objectBoundingBox"><g><ellipse cx="12" cy="12" rx="11" ry="11" fill="#FFFFFF" fill-opacity="1"/></g></mask></defs><g><g><rect x="0" y="0" width="24" height="24" rx="0" fill="#D8D8D8" fill-opacity="0"/></g><g><g><path d="M23,12Q23,12.27,22.9867,12.5397Q22.9735,12.8095,22.947,13.0782Q22.9206,13.3469,22.8809,13.614Q22.8413,13.8811,22.7886,14.146Q22.736,14.4108,22.6703,14.6728Q22.6047,14.9347,22.5263,15.1931Q22.448,15.4515,22.357,15.7058Q22.266,15.96,22.1627,16.2095Q22.0593,16.459,21.9439,16.7031Q21.8284,16.947200000000002,21.7011,17.1854Q21.5738,17.4235,21.435,17.6551Q21.2962,17.8867,21.1462,18.1113Q20.9961,18.3358,20.8353,18.5527Q20.6744,18.7696,20.5031,18.9783Q20.3318,19.1871,20.1505,19.3871Q19.9691,19.5872,19.7782,19.7782Q19.5872,19.9691,19.3871,20.1505Q19.1871,20.3318,18.9783,20.5031Q18.7696,20.6744,18.5527,20.8353Q18.3358,20.9961,18.1113,21.1462Q17.8867,21.2962,17.6551,21.435Q17.4235,21.5738,17.1854,21.7011Q16.947200000000002,21.8284,16.7031,21.9439Q16.459,22.0593,16.2095,22.1627Q15.96,22.266,15.7058,22.357Q15.4515,22.448,15.1931,22.5263Q14.9347,22.6047,14.6728,22.6703Q14.4108,22.736,14.146,22.7886Q13.8811,22.8413,13.614,22.8809Q13.3469,22.9206,13.0782,22.947Q12.8095,22.9735,12.5397,22.9867Q12.27,23,12,23Q11.73,23,11.4603,22.9867Q11.1905,22.9735,10.92181,22.947Q10.65308,22.9206,10.38596,22.8809Q10.11885,22.8413,9.854,22.7886Q9.58916,22.736,9.32722,22.6703Q9.06527,22.6047,8.80687,22.5263Q8.54846,22.448,8.29421,22.357Q8.03996,22.266,7.79048,22.1627Q7.541,22.0593,7.29689,21.9439Q7.05279,21.8284,6.81464,21.7011Q6.57649,21.5738,6.34487,21.435Q6.11325,21.2962,5.88873,21.1462Q5.6642,20.9961,5.44731,20.8353Q5.23041,20.6744,5.02167,20.5031Q4.81293,20.3318,4.61285,20.1505Q4.41277,19.9691,4.221830000000001,19.7782Q4.03088,19.5872,3.84954,19.3871Q3.66819,19.1871,3.49688,18.9783Q3.32558,18.7696,3.16472,18.5527Q3.00386,18.3358,2.8538300000000003,18.1113Q2.70381,17.8867,2.56499,17.6551Q2.4261600000000003,17.4235,2.29887,17.1854Q2.17157,16.947200000000002,2.05612,16.7031Q1.940663,16.459,1.8373249999999999,16.2095Q1.733987,15.96,1.6430150000000001,15.7058Q1.5520429999999998,15.4515,1.473656,15.1931Q1.3952689999999999,14.9347,1.329656,14.6728Q1.264043,14.4108,1.211362,14.146Q1.158681,13.8811,1.1190579999999999,13.614Q1.079436,13.3469,1.052968,13.0782Q1.0265,12.8095,1.01325,12.5397Q1,12.27,1,12Q1,11.73,1.01325,11.4603Q1.0265,11.1905,1.052968,10.92181Q1.079436,10.65308,1.1190579999999999,10.38596Q1.158681,10.11885,1.211362,9.854Q1.264043,9.58916,1.329656,9.32722Q1.3952689999999999,9.06527,1.473656,8.80687Q1.5520429999999998,8.54846,1.6430150000000001,8.29421Q1.733987,8.03996,1.8373249999999999,7.79048Q1.940663,7.541,2.05612,7.29689Q2.17157,7.05279,2.29887,6.81464Q2.4261600000000003,6.57649,2.56499,6.34487Q2.70381,6.11325,2.8538300000000003,5.88873Q3.00386,5.6642,3.16472,5.44731Q3.32558,5.23041,3.49688,5.02167Q3.66819,4.81293,3.84954,4.61285Q4.03088,4.41277,4.221830000000001,4.221830000000001Q4.41277,4.03088,4.61285,3.84954Q4.81293,3.66819,5.02167,3.49688Q5.23041,3.32558,5.44731,3.16472Q5.6642,3.00386,5.88873,2.8538300000000003Q6.11325,2.70381,6.34487,2.56499Q6.57649,2.4261600000000003,6.81464,2.29887Q7.05279,2.17157,7.29689,2.05612Q7.541,1.940663,7.79048,1.8373249999999999Q8.03996,1.733987,8.29421,1.6430150000000001Q8.54846,1.5520429999999998,8.80687,1.473656Q9.06527,1.3952689999999999,9.32722,1.329656Q9.58916,1.264043,9.854,1.211362Q10.11885,1.158681,10.38596,1.1190579999999999Q10.65308,1.079436,10.92181,1.052968Q11.1905,1.0265,11.4603,1.01325Q11.73,1,12,1Q12.27,1,12.5397,1.01325Q12.8095,1.0265,13.0782,1.052968Q13.3469,1.079436,13.614,1.1190579999999999Q13.8811,1.158681,14.146,1.211362Q14.4108,1.264043,14.6728,1.329656Q14.9347,1.3952689999999999,15.1931,1.473656Q15.4515,1.5520429999999998,15.7058,1.6430150000000001Q15.96,1.733987,16.2095,1.8373249999999999Q16.459,1.940663,16.7031,2.05612Q16.947200000000002,2.17157,17.1854,2.29887Q17.4235,2.4261600000000003,17.6551,2.56499Q17.8867,2.70381,18.1113,2.8538300000000003Q18.3358,3.00386,18.5527,3.16472Q18.7696,3.32558,18.9783,3.49688Q19.1871,3.66819,19.3871,3.84954Q19.5872,4.03088,19.7782,4.221830000000001Q19.9691,4.41277,20.1505,4.61285Q20.3318,4.81293,20.5031,5.02167Q20.6744,5.23041,20.8353,5.44731Q20.9961,5.6642,21.1462,5.88873Q21.2962,6.11325,21.435,6.34487Q21.5738,6.57649,21.7011,6.81464Q21.8284,7.05279,21.9439,7.29689Q22.0593,7.541,22.1627,7.79048Q22.266,8.03996,22.357,8.29421Q22.448,8.54846,22.5263,8.80687Q22.6047,9.06527,22.6703,9.32722Q22.736,9.58916,22.7886,9.854Q22.8413,10.11885,22.8809,10.38596Q22.9206,10.65308,22.947,10.92181Q22.9735,11.1905,22.9867,11.4603Q23,11.73,23,12ZM22,12Q22,11.7545,21.988,11.5093Q21.9759,11.2641,21.9518,11.0198Q21.9278,10.77552,21.8918,10.53269Q21.8557,10.28987,21.8078,10.0491Q21.76,9.80833,21.7003,9.5702Q21.6407,9.33207,21.5694,9.09715Q21.4981,8.86224,21.4154,8.6311Q21.3327,8.39996,21.2388,8.17316Q21.1448,7.94636,21.0399,7.72445Q20.9349,7.50253,20.8192,7.28603Q20.7035,7.06953,20.5773,6.85897Q20.4511,6.64841,20.3147,6.4443Q20.1783,6.24018,20.0321,6.04301Q19.8858,5.84583,19.7301,5.65607Q19.5744,5.4663,19.4095,5.28441Q19.2447,5.10252,19.0711,4.928929999999999Q18.8975,4.75535,18.7156,4.59049Q18.5337,4.42563,18.3439,4.2699Q18.1542,4.11416,17.957,3.96792Q17.7598,3.82169,17.5557,3.6853Q17.3516,3.54892,17.141,3.42271Q16.930500000000002,3.29651,16.714,3.18079Q16.497500000000002,3.06507,16.2756,2.9601100000000002Q16.0536,2.85515,15.8268,2.7612Q15.6,2.6672599999999997,15.3689,2.5845599999999997Q15.1378,2.5018599999999998,14.9028,2.4306Q14.6679,2.35934,14.4298,2.29969Q14.1917,2.24004,13.9509,2.19215Q13.7101,2.14426,13.4673,2.10823Q13.2245,2.07221,12.9802,2.0481499999999997Q12.7359,2.02409,12.4907,2.01205Q12.2455,2,12,2Q11.7545,2,11.5093,2.01205Q11.2641,2.02409,11.0198,2.0481499999999997Q10.77552,2.07221,10.53269,2.10823Q10.28987,2.14426,10.0491,2.19215Q9.80833,2.24004,9.5702,2.29969Q9.33207,2.35934,9.09715,2.4306Q8.86224,2.5018599999999998,8.6311,2.5845599999999997Q8.39996,2.6672599999999997,8.17316,2.7612Q7.94636,2.85515,7.72445,2.9601100000000002Q7.50253,3.06507,7.28603,3.18079Q7.06953,3.29651,6.85897,3.42271Q6.64841,3.54892,6.4443,3.6853Q6.24018,3.82169,6.04301,3.96792Q5.84583,4.11416,5.65607,4.2699Q5.4663,4.42563,5.28441,4.59049Q5.10252,4.75535,4.928929999999999,4.928929999999999Q4.75535,5.10252,4.59049,5.28441Q4.42563,5.4663,4.2699,5.65607Q4.11416,5.84583,3.96792,6.04301Q3.82169,6.24018,3.6853,6.4443Q3.54892,6.64841,3.42271,6.85897Q3.29651,7.06953,3.18079,7.28603Q3.06507,7.50253,2.9601100000000002,7.72445Q2.85515,7.94636,2.7612,8.17316Q2.6672599999999997,8.39996,2.5845599999999997,8.6311Q2.5018599999999998,8.86224,2.4306,9.09715Q2.35934,9.33207,2.29969,9.5702Q2.24004,9.80833,2.19215,10.0491Q2.14426,10.28987,2.10823,10.53269Q2.07221,10.77552,2.0481499999999997,11.0198Q2.02409,11.2641,2.01205,11.5093Q2,11.7545,2,12Q2,12.2455,2.01205,12.4907Q2.02409,12.7359,2.0481499999999997,12.9802Q2.07221,13.2245,2.10823,13.4673Q2.14426,13.7101,2.19215,13.9509Q2.24004,14.1917,2.29969,14.4298Q2.35934,14.6679,2.4306,14.9028Q2.5018599999999998,15.1378,2.5845599999999997,15.3689Q2.6672599999999997,15.6,2.7612,15.8268Q2.85515,16.0536,2.9601100000000002,16.2755Q3.06507,16.497500000000002,3.18079,16.714Q3.29651,16.930500000000002,3.42271,17.141Q3.54892,17.3516,3.6853,17.5557Q3.82169,17.7598,3.96792,17.957Q4.11416,18.1542,4.2699,18.3439Q4.42563,18.5337,4.59049,18.7156Q4.75535,18.8975,4.928929999999999,19.0711Q5.10252,19.2447,5.28441,19.4095Q5.4663,19.5744,5.65607,19.7301Q5.84583,19.8858,6.04301,20.0321Q6.24018,20.1783,6.4443,20.3147Q6.64841,20.4511,6.85897,20.5773Q7.06953,20.7035,7.28603,20.8192Q7.50253,20.9349,7.72445,21.0399Q7.94636,21.1448,8.17316,21.2388Q8.39996,21.3327,8.6311,21.4154Q8.86224,21.4981,9.09715,21.5694Q9.33207,21.6407,9.5702,21.7003Q9.80833,21.76,10.0491,21.8078Q10.28987,21.8557,10.53269,21.8918Q10.77552,21.9278,11.0198,21.9518Q11.2641,21.9759,11.5093,21.988Q11.7545,22,12,22Q12.2455,22,12.4907,21.988Q12.7359,21.9759,12.9802,21.9518Q13.2245,21.9278,13.4673,21.8918Q13.7101,21.8557,13.9509,21.8078Q14.1917,21.76,14.4298,21.7003Q14.6679,21.6407,14.9028,21.5694Q15.1378,21.4981,15.3689,21.4154Q15.6,21.3327,15.8268,21.2388Q16.0536,21.1448,16.2755,21.0399Q16.497500000000002,20.9349,16.714,20.8192Q16.930500000000002,20.7035,17.141,20.5773Q17.3516,20.4511,17.5557,20.3147Q17.7598,20.1783,17.957,20.0321Q18.1542,19.8858,18.3439,19.7301Q18.5337,19.5744,18.7156,19.4095Q18.8975,19.2447,19.0711,19.0711Q19.2447,18.8975,19.4095,18.7156Q19.5744,18.5337,19.7301,18.3439Q19.8858,18.1542,20.0321,17.957Q20.1783,17.7598,20.3147,17.5557Q20.4511,17.3516,20.5773,17.141Q20.7035,16.930500000000002,20.8192,16.714Q20.9349,16.497500000000002,21.0399,16.2756Q21.1448,16.0536,21.2388,15.8268Q21.3327,15.6,21.4154,15.3689Q21.4981,15.1378,21.5694,14.9028Q21.6407,14.6679,21.7003,14.4298Q21.76,14.1917,21.8078,13.9509Q21.8557,13.7101,21.8918,13.4673Q21.9278,13.2245,21.9518,12.9802Q21.9759,12.7359,21.988,12.4907Q22,12.2455,22,12Z" fill="#222222" fill-opacity="1"/></g><g mask="url(#master_svg0_10_269/2_1281)"><g><path d="M6,25Q6.27,25,6.5397,24.9843Q6.8095,24.9687,7.078200000000001,24.9374Q7.3469,24.9061,7.614000000000001,24.8593Q7.8811,24.8125,8.146,24.7502Q8.4108,24.6879,8.6728,24.6104Q8.9347,24.5329,9.1931,24.4402Q9.4515,24.3476,9.7058,24.2401Q9.96,24.1326,10.2095,24.0104Q10.459,23.8883,10.7031,23.7519Q10.9472,23.6154,11.185400000000001,23.465Q11.4235,23.3145,11.655100000000001,23.1505Q11.886700000000001,22.9864,12.1113,22.8091Q12.335799999999999,22.6318,12.552700000000002,22.4417Q12.7696,22.2516,12.9783,22.0491Q13.187100000000001,21.8467,13.3871,21.6324Q13.5872,21.418,13.778199999999998,21.1924Q13.969100000000001,20.9667,14.150500000000001,20.7303Q14.331800000000001,20.4938,14.5031,20.2471Q14.674399999999999,20.0004,14.8353,19.7441Q14.996099999999998,19.4878,15.1462,19.2224Q15.296199999999999,18.9571,15.434999999999999,18.6833Q15.573799999999999,18.4096,15.7011,18.1282Q15.828399999999998,17.8467,15.9439,17.5582Q16.0593,17.2697,16.1627,16.9749Q16.266,16.68,16.357,16.3796Q16.448,16.0791,16.5263,15.773700000000002Q16.6047,15.4683,16.6703,15.1587Q16.736,14.8492,16.7886,14.5362Q16.8413,14.2232,16.8809,13.9075Q16.9206,13.5918,16.947,13.2742Q16.9735,12.9566,16.9867,12.6379Q17,12.3191,17,12Q17,11.6809,16.9867,11.3621Q16.9735,11.0434,16.947,10.7258Q16.9206,10.4082,16.8809,10.0925Q16.8413,9.7768,16.7886,9.4638Q16.736,9.1508,16.6703,8.84126Q16.6047,8.53169,16.5263,8.2263Q16.448,7.920909999999999,16.357,7.620430000000001Q16.266,7.31995,16.1627,7.02511Q16.0593,6.73027,15.9439,6.44178Q15.828399999999998,6.15329,15.7011,5.87184Q15.573799999999999,5.59039,15.434999999999999,5.31666Q15.296199999999999,5.04293,15.1462,4.77759Q14.996099999999998,4.51224,14.8353,4.25591Q14.674399999999999,3.99958,14.5031,3.75289Q14.331800000000001,3.50619,14.150500000000001,3.26973Q13.969100000000001,3.03327,13.778199999999998,2.80761Q13.5872,2.58195,13.3871,2.36764Q13.187100000000001,2.15332,12.9783,1.95086Q12.7696,1.7484099999999998,12.552700000000002,1.5583Q12.335799999999999,1.3681999999999999,12.1113,1.1909Q11.886700000000001,1.0135900000000002,11.655100000000001,0.8495299999999999Q11.4235,0.68546,11.185400000000001,0.53502Q10.9472,0.38459,10.7031,0.24814000000000003Q10.459,0.11169000000000007,10.2095,-0.010434000000000054Q9.96,-0.13256100000000004,9.7058,-0.24007299999999998Q9.4515,-0.34758500000000003,9.1931,-0.44022399999999995Q8.9347,-0.532864,8.6728,-0.610406Q8.4108,-0.6879489999999999,8.146,-0.750209Q7.8811,-0.812468,7.614000000000001,-0.859295Q7.3469,-0.906121,7.078200000000001,-0.9374015Q6.8095,-0.9686819,6.5397,-0.9843409Q6.27,-1,6,-1Q5.73,-1,5.4603,-0.9843409Q5.1905,-0.9686819,4.921810000000001,-0.9374015Q4.653079999999999,-0.906121,4.385960000000001,-0.859295Q4.11885,-0.812468,3.853999999999999,-0.750209Q3.5891599999999997,-0.6879489999999999,3.3272200000000005,-0.610406Q3.06527,-0.532864,2.80687,-0.44022399999999995Q2.5484600000000004,-0.34758500000000003,2.2942099999999996,-0.24007299999999998Q2.0399599999999998,-0.13256100000000004,1.7904799999999996,-0.010434000000000054Q1.5410000000000004,0.11169000000000007,1.2968900000000003,0.24814000000000003Q1.05279,0.38459,0.8146399999999998,0.53502Q0.5764899999999997,0.68546,0.34487000000000023,0.8495299999999999Q0.11324999999999985,1.0135900000000002,-0.1112700000000002,1.1909Q-0.3357999999999999,1.3681999999999999,-0.5526900000000001,1.5583Q-0.76959,1.7484099999999998,-0.9783299999999997,1.95086Q-1.1870699999999998,2.15332,-1.38715,2.36764Q-1.58723,2.58195,-1.7781699999999998,2.80761Q-1.9691200000000002,3.03327,-2.15046,3.26973Q-2.33181,3.50619,-2.50312,3.75289Q-2.67442,3.99958,-2.83528,4.25591Q-2.99614,4.51224,-3.1461699999999997,4.77759Q-3.29619,5.04293,-3.43501,5.31666Q-3.5738399999999997,5.59039,-3.70113,5.87184Q-3.82843,6.15329,-3.94388,6.44178Q-4.059337,6.73027,-4.162675,7.02511Q-4.266013,7.31995,-4.356985,7.620430000000001Q-4.447957,7.920909999999999,-4.526344,8.2263Q-4.604731,8.53169,-4.670344,8.84126Q-4.735957,9.1508,-4.788638,9.4638Q-4.841319,9.7768,-4.880942,10.0925Q-4.920564,10.4082,-4.947032,10.7258Q-4.9735,11.0434,-4.98675,11.3621Q-5,11.6809,-5,12Q-5,12.3191,-4.98675,12.6379Q-4.9735,12.9566,-4.947032,13.2742Q-4.920564,13.5918,-4.880942,13.9075Q-4.841319,14.2232,-4.788638,14.5362Q-4.735957,14.8492,-4.670344,15.1587Q-4.604731,15.4683,-4.526344,15.773700000000002Q-4.447957,16.0791,-4.356985,16.3796Q-4.266013,16.68,-4.162675,16.9749Q-4.059337,17.2697,-3.94388,17.5582Q-3.82843,17.8467,-3.70113,18.1282Q-3.5738399999999997,18.4096,-3.43501,18.6833Q-3.29619,18.9571,-3.1461699999999997,19.2224Q-2.99614,19.4878,-2.83528,19.7441Q-2.67442,20.0004,-2.50312,20.2471Q-2.33181,20.4938,-2.15046,20.7303Q-1.9691200000000002,20.9667,-1.7781699999999998,21.1924Q-1.58723,21.418,-1.38715,21.6324Q-1.1870699999999998,21.8467,-0.9783299999999997,22.0491Q-0.76959,22.2516,-0.5526900000000001,22.4417Q-0.3357999999999999,22.6318,-0.1112700000000002,22.8091Q0.11324999999999985,22.9864,0.34487000000000023,23.1505Q0.5764899999999997,23.3145,0.8146399999999998,23.465Q1.05279,23.6154,1.2968900000000003,23.7519Q1.5410000000000004,23.8883,1.7904799999999996,24.0104Q2.0399599999999998,24.1326,2.2942099999999996,24.2401Q2.5484600000000004,24.3476,2.80687,24.4402Q3.06527,24.5329,3.3272200000000005,24.6104Q3.5891599999999997,24.6879,3.853999999999999,24.7502Q4.11885,24.8125,4.385960000000001,24.8593Q4.653079999999999,24.9061,4.921810000000001,24.9374Q5.1905,24.9687,5.4603,24.9843Q5.73,25,6,25ZM13.014800000000001,3.45355Q16,6.98153,16,12Q16,17.0185,13.014800000000001,20.5464Q10.0925,24,6,24Q1.9074600000000004,24,-1.01479,20.5464Q-4,17.0185,-4,12Q-4,6.98153,-1.01479,3.45355Q1.9074499999999999,0,6,0Q10.0925,0,13.014800000000001,3.45355Z" fill-rule="evenodd" fill="#222222" fill-opacity="1"/></g><g><path d="M18,25Q18.27,25,18.5397,24.9843Q18.8095,24.9687,19.078200000000002,24.9374Q19.346899999999998,24.9061,19.614,24.8593Q19.8811,24.8125,20.146,24.7502Q20.410800000000002,24.6879,20.672800000000002,24.6104Q20.9347,24.5329,21.1931,24.4402Q21.4515,24.3476,21.7058,24.2401Q21.96,24.1326,22.2095,24.0104Q22.459,23.8883,22.7031,23.7519Q22.947200000000002,23.6154,23.1854,23.465Q23.4235,23.3145,23.6551,23.1505Q23.8867,22.9864,24.1113,22.8091Q24.3358,22.6318,24.5527,22.4417Q24.7696,22.2516,24.9783,22.0491Q25.1871,21.8467,25.3871,21.6324Q25.5872,21.418,25.7782,21.1924Q25.9691,20.9667,26.1505,20.7303Q26.3318,20.4938,26.5031,20.2471Q26.6744,20.0004,26.8353,19.7441Q26.9961,19.4878,27.1462,19.2224Q27.2962,18.9571,27.435,18.6833Q27.5738,18.4096,27.7011,18.1282Q27.8284,17.8467,27.9439,17.5582Q28.0593,17.2697,28.1627,16.9749Q28.266,16.68,28.357,16.3796Q28.448,16.0791,28.5263,15.773700000000002Q28.6047,15.4683,28.6703,15.1587Q28.736,14.8492,28.7886,14.5362Q28.8413,14.2232,28.8809,13.9075Q28.9206,13.5918,28.947,13.2742Q28.9735,12.9566,28.9867,12.6379Q29,12.3191,29,12Q29,11.6809,28.9867,11.3621Q28.9735,11.0434,28.947,10.7258Q28.9206,10.4082,28.8809,10.0925Q28.8413,9.7768,28.7886,9.4638Q28.736,9.1508,28.6703,8.84126Q28.6047,8.53169,28.5263,8.2263Q28.448,7.920909999999999,28.357,7.620430000000001Q28.266,7.31995,28.1627,7.02511Q28.0593,6.73027,27.9439,6.44178Q27.8284,6.15329,27.7011,5.87184Q27.5738,5.59039,27.435,5.31666Q27.2962,5.04293,27.1462,4.77759Q26.9961,4.51224,26.8353,4.25591Q26.6744,3.99958,26.5031,3.75289Q26.3318,3.50619,26.1505,3.26973Q25.9691,3.03327,25.7782,2.80761Q25.5872,2.58195,25.3871,2.36764Q25.1871,2.15332,24.9783,1.95086Q24.7696,1.7484099999999998,24.5527,1.5583Q24.3358,1.3681999999999999,24.1113,1.1909Q23.8867,1.0135900000000002,23.6551,0.8495299999999999Q23.4235,0.68546,23.1854,0.53502Q22.947200000000002,0.38459,22.7031,0.24814000000000003Q22.459,0.11169000000000007,22.2095,-0.010434000000000054Q21.96,-0.13256100000000004,21.7058,-0.24007299999999998Q21.4515,-0.34758500000000003,21.1931,-0.44022399999999995Q20.9347,-0.532864,20.672800000000002,-0.610406Q20.410800000000002,-0.6879489999999999,20.146,-0.750209Q19.8811,-0.812468,19.614,-0.859295Q19.346899999999998,-0.906121,19.078200000000002,-0.9374015Q18.8095,-0.9686819,18.5397,-0.9843409Q18.27,-1,18,-1Q17.73,-1,17.4603,-0.9843409Q17.1905,-0.9686819,16.92181,-0.9374015Q16.65308,-0.906121,16.38596,-0.859295Q16.118850000000002,-0.812468,15.854,-0.750209Q15.58916,-0.6879489999999999,15.32722,-0.610406Q15.06527,-0.532864,14.80687,-0.44022399999999995Q14.54846,-0.34758500000000003,14.29421,-0.24007299999999998Q14.03996,-0.13256100000000004,13.790479999999999,-0.010434000000000054Q13.541,0.11169000000000007,13.296890000000001,0.24814000000000003Q13.05279,0.38459,12.81464,0.53502Q12.57649,0.68546,12.34487,0.8495299999999999Q12.11325,1.0135900000000002,11.888729999999999,1.1909Q11.664200000000001,1.3681999999999999,11.44731,1.5583Q11.23041,1.7484099999999998,11.02167,1.95086Q10.81293,2.15332,10.61285,2.36764Q10.41277,2.58195,10.22183,2.80761Q10.03088,3.03327,9.849540000000001,3.26973Q9.66819,3.50619,9.49688,3.75289Q9.32558,3.99958,9.164719999999999,4.25591Q9.00386,4.51224,8.85383,4.77759Q8.70381,5.04293,8.56499,5.31666Q8.42616,5.59039,8.29887,5.87184Q8.17157,6.15329,8.05612,6.44178Q7.940663,6.73027,7.837325,7.02511Q7.733987,7.31995,7.643015,7.620430000000001Q7.552043,7.920909999999999,7.473656,8.2263Q7.395269,8.53169,7.329656,8.84126Q7.264043,9.1508,7.211362,9.4638Q7.158681,9.7768,7.119058,10.0925Q7.079436,10.4082,7.052968,10.7258Q7.0265,11.0434,7.01325,11.3621Q7,11.6809,7,12Q7,12.3191,7.01325,12.6379Q7.0265,12.9566,7.052968,13.2742Q7.079436,13.5918,7.119058,13.9075Q7.158681,14.2232,7.211362,14.5362Q7.264043,14.8492,7.329656,15.1587Q7.395269,15.4683,7.473656,15.773700000000002Q7.552043,16.0791,7.643015,16.3796Q7.733987,16.68,7.837325,16.9749Q7.940663,17.2697,8.05612,17.5582Q8.17157,17.8467,8.29887,18.1282Q8.42616,18.4096,8.56499,18.6833Q8.70381,18.9571,8.85383,19.2224Q9.00386,19.4878,9.164719999999999,19.7441Q9.32558,20.0004,9.49688,20.2471Q9.66819,20.4938,9.849540000000001,20.7303Q10.03088,20.9667,10.22183,21.1924Q10.41277,21.418,10.61285,21.6324Q10.81293,21.8467,11.02167,22.0491Q11.23041,22.2516,11.44731,22.4417Q11.664200000000001,22.6318,11.888729999999999,22.8091Q12.11325,22.9864,12.34487,23.1505Q12.57649,23.3145,12.81464,23.465Q13.05279,23.6154,13.296890000000001,23.7519Q13.541,23.8883,13.790479999999999,24.0104Q14.03996,24.1326,14.29421,24.2401Q14.54846,24.3476,14.80687,24.4402Q15.06527,24.5329,15.32722,24.6104Q15.58916,24.6879,15.854,24.7502Q16.118850000000002,24.8125,16.38596,24.8593Q16.65308,24.9061,16.92181,24.9374Q17.1905,24.9687,17.4603,24.9843Q17.73,25,18,25ZM25.0148,3.45355Q28,6.98153,28,12Q28,17.0185,25.0148,20.5464Q22.0925,24,18,24Q13.90746,24,10.98521,20.5464Q8,17.0185,8,12Q8,6.98153,10.98521,3.45355Q13.90745,0,18,0Q22.0925,0,25.0148,3.45355Z" fill-rule="evenodd" fill="#222222" fill-opacity="1"/></g></g><g mask="url(#master_svg1_10_269/2_1286)"><g><rect x="2" y="9" width="20" height="1" rx="0" fill="#222222" fill-opacity="1"/></g><g><rect x="2" y="14" width="20" height="1" rx="0" fill="#222222" fill-opacity="1"/></g></g></g></g></svg>