<svg xmlns="http://www.w3.org/2000/svg" xmlns:xlink="http://www.w3.org/1999/xlink" fill="none" version="1.1" width="16" height="16" viewBox="0 0 16 16"><g><g><path d="M1,4L5,4L4,2L12,2L11,4L15,4L15,14L1,14L1,4ZM6.61803,5L5.61803,3L10.38197,3L9.38197,5L14,5L14,13L2,13L2,5L6.61803,5Z" fill-rule="evenodd" fill="#222222" fill-opacity="1"/></g><g><path d="M11,9Q11,9.14738,10.98555,9.29405Q10.97111,9.440719999999999,10.942350000000001,9.58527Q10.913599999999999,9.72982,10.87082,9.87085Q10.82804,10.011890000000001,10.77164,10.14805Q10.71524,10.28421,10.64576,10.41419Q10.57629,10.544170000000001,10.49441,10.66671Q10.41253,10.78925,10.31903,10.903179999999999Q10.22553,11.017109999999999,10.12132,11.12132Q10.017109999999999,11.22553,9.903179999999999,11.31903Q9.78925,11.41253,9.66671,11.49441Q9.544170000000001,11.57629,9.41419,11.64576Q9.28421,11.71524,9.14805,11.77164Q9.011890000000001,11.82804,8.87085,11.87082Q8.72982,11.913599999999999,8.58527,11.94236Q8.440719999999999,11.97111,8.29405,11.98555Q8.14738,12,8,12Q7.85262,12,7.70595,11.98555Q7.55928,11.97111,7.4147300000000005,11.942350000000001Q7.27018,11.913599999999999,7.12915,11.87082Q6.98811,11.82804,6.85195,11.77164Q6.71579,11.71524,6.58581,11.64576Q6.45583,11.57629,6.33329,11.49441Q6.21075,11.41253,6.09682,11.31903Q5.982893,11.22553,5.87868,11.12132Q5.774466,11.017109999999999,5.680969,10.903179999999999Q5.587471,10.78925,5.505591,10.66671Q5.423711,10.544170000000001,5.354236,10.41419Q5.284761,10.28421,5.228361,10.14805Q5.171961,10.011890000000001,5.129179,9.87085Q5.0863967,9.72982,5.0576442,9.58527Q5.0288916,9.440719999999999,5.0144458,9.29405Q5,9.14738,5,9Q5,8.85262,5.0144458,8.70595Q5.0288916,8.559280000000001,5.0576442,8.41473Q5.0863967,8.27018,5.129179,8.12915Q5.171961,7.98811,5.228361,7.85195Q5.284761,7.71579,5.354236,7.58581Q5.423711,7.45583,5.505591,7.33329Q5.587471,7.21075,5.680969,7.09682Q5.774466,6.982893,5.87868,6.87868Q5.982893,6.774466,6.09682,6.680969Q6.21075,6.587471,6.33329,6.505591Q6.45583,6.423711,6.58581,6.354236Q6.71579,6.284761,6.85195,6.228361Q6.98811,6.171961,7.12915,6.129179Q7.27018,6.0863967,7.4147300000000005,6.0576442Q7.55928,6.0288916,7.70595,6.0144458Q7.85262,6,8,6Q8.14738,6,8.29405,6.0144458Q8.440719999999999,6.0288916,8.58527,6.0576442Q8.72982,6.0863967,8.87085,6.129179Q9.011890000000001,6.171961,9.14805,6.228361Q9.28421,6.284761,9.41419,6.354236Q9.544170000000001,6.423711,9.66671,6.505591Q9.78925,6.587471,9.903179999999999,6.680969Q10.017109999999999,6.774466,10.12132,6.87868Q10.22553,6.982893,10.31903,7.09682Q10.41253,7.21075,10.49441,7.33329Q10.57629,7.45583,10.64576,7.58581Q10.71524,7.71579,10.77164,7.85195Q10.82804,7.98811,10.87082,8.12915Q10.913599999999999,8.27018,10.94236,8.41473Q10.97111,8.559280000000001,10.98555,8.70595Q11,8.85262,11,9ZM10,9Q10,8.90175,9.99037,8.80397Q9.98074,8.70619,9.96157,8.60982Q9.9424,8.51345,9.913879999999999,8.41943Q9.88536,8.32541,9.847760000000001,8.23463Q9.81016,8.14386,9.76384,8.05721Q9.71753,7.97055,9.662939999999999,7.88886Q9.60835,7.80716,9.54602,7.73121Q9.48369,7.65526,9.41421,7.58579Q9.34474,7.51631,9.26879,7.45398Q9.19283,7.39165,9.111139999999999,7.33706Q9.02945,7.28247,8.94279,7.23616Q8.85614,7.18984,8.76537,7.15224Q8.67459,7.11464,8.58057,7.08612Q8.48655,7.0576,8.39018,7.03843Q8.29381,7.01926,8.19603,7.00963Q8.09825,7,8,7Q7.90175,7,7.80397,7.00963Q7.706189999999999,7.01926,7.60982,7.03843Q7.513450000000001,7.0576,7.41943,7.08612Q7.32541,7.11464,7.23463,7.15224Q7.14386,7.18984,7.0572099999999995,7.23616Q6.97055,7.28247,6.88886,7.33706Q6.80716,7.39165,6.73121,7.45398Q6.65526,7.51631,6.58579,7.58579Q6.51631,7.65526,6.45398,7.73121Q6.39165,7.80716,6.33706,7.88886Q6.28247,7.97055,6.23616,8.05721Q6.18984,8.14386,6.15224,8.23463Q6.11464,8.32541,6.08612,8.41943Q6.0576,8.51345,6.03843,8.60982Q6.01926,8.70619,6.00963,8.80397Q6,8.90175,6,9Q6,9.09825,6.00963,9.19603Q6.01926,9.29381,6.03843,9.39018Q6.0576,9.48655,6.08612,9.58057Q6.11464,9.67459,6.15224,9.76537Q6.18984,9.85614,6.23616,9.94279Q6.28247,10.02945,6.33706,10.111139999999999Q6.39165,10.19283,6.45398,10.26879Q6.51631,10.34474,6.58579,10.41421Q6.65526,10.48369,6.73121,10.54602Q6.80716,10.60835,6.88886,10.662939999999999Q6.97055,10.71753,7.0572099999999995,10.76384Q7.14386,10.81016,7.23463,10.847760000000001Q7.32541,10.88536,7.41943,10.913879999999999Q7.513450000000001,10.9424,7.60982,10.96157Q7.706189999999999,10.98074,7.80397,10.99037Q7.90175,11,8,11Q8.09825,11,8.19603,10.99037Q8.29381,10.98074,8.39018,10.96157Q8.48655,10.9424,8.58057,10.913879999999999Q8.67459,10.88536,8.76537,10.847760000000001Q8.85614,10.81016,8.94279,10.76384Q9.02945,10.71753,9.111139999999999,10.662939999999999Q9.19283,10.60835,9.26879,10.54602Q9.34474,10.48369,9.41421,10.41421Q9.48369,10.34474,9.54602,10.26879Q9.60835,10.19283,9.662939999999999,10.111139999999999Q9.71753,10.02945,9.76384,9.94279Q9.81016,9.85614,9.847760000000001,9.76537Q9.88536,9.67459,9.913879999999999,9.58057Q9.9424,9.48655,9.96157,9.39018Q9.98074,9.29381,9.99037,9.19603Q10,9.09825,10,9Z" fill="#222222" fill-opacity="1"/></g></g></svg>