<svg xmlns="http://www.w3.org/2000/svg" xmlns:xlink="http://www.w3.org/1999/xlink" fill="none" version="1.1" width="32" height="32" viewBox="0 0 32 32"><defs><clipPath id="master_svg0_165_1446"><rect x="0" y="0" width="32" height="32" rx="0"/></clipPath></defs><g clip-path="url(#master_svg0_165_1446)"><g style="opacity:0;"><rect x="0" y="0" width="32" height="32" rx="0" fill="#D8D8D8" fill-opacity="1"/></g><g><path d="M23.2924,22.70659L23.2929,22.70711Q23.433500000000002,22.84776,23.6173,22.92388Q23.801099999999998,23,24,23Q24.0985,23,24.1951,22.98078Q24.2917,22.961570000000002,24.3827,22.92388Q24.4737,22.88619,24.5556,22.83147Q24.6375,22.77675,24.7071,22.70711Q24.7767,22.63746,24.8315,22.55557Q24.8862,22.47368,24.9239,22.38268Q24.9616,22.29169,24.9808,22.19509Q25,22.098489999999998,25,22Q25,21.801090000000002,24.9239,21.61732Q24.8478,21.43355,24.7071,21.29289L16.70711,13.292893Q16.56645,13.152241,16.38268,13.07612Q16.198909999999998,13,16,13Q15.80109,13,15.61732,13.07612Q15.43355,13.152241,15.29289,13.292893L7.293268,21.29252L7.292893,21.29289Q7.152241,21.43355,7.076121,21.61732Q7,21.801090000000002,7,22Q7,22.098489999999998,7.019215,22.19509Q7.03843,22.29169,7.076121,22.38268Q7.113812,22.47368,7.16853,22.55557Q7.223249,22.63746,7.292893,22.70711Q7.362537,22.77675,7.44443,22.83147Q7.526322,22.88619,7.617317,22.92388Q7.708311,22.961570000000002,7.80491,22.98078Q7.9015086,23,8,23Q8.198912,23,8.382683,22.92388Q8.566455,22.84776,8.707107,22.70711L16,15.41421L23.2924,22.70659Z" fill-rule="evenodd" fill="#222222" fill-opacity="1"/></g><g><path d="M8,7.6666669845581055L24,7.6666669845581055Q24.0985,7.6666669845581055,24.1951,7.6858819845581055Q24.2917,7.705096984558105,24.3827,7.742787984558105Q24.4737,7.780478984558106,24.5556,7.835196984558105Q24.6375,7.8899159845581055,24.7071,7.959559984558106Q24.7767,8.029203984558105,24.8315,8.111096984558106Q24.8862,8.192988984558106,24.9239,8.283983984558105Q24.9616,8.374977984558106,24.9808,8.471576984558105Q25,8.568175584558105,25,8.666666984558105Q25,8.765158384558106,24.9808,8.861756984558106Q24.9616,8.958355984558105,24.9239,9.049349984558106Q24.8862,9.140344984558105,24.8315,9.222236984558105Q24.7767,9.304129984558106,24.7071,9.373773984558106Q24.6375,9.443417984558106,24.5556,9.498136984558105Q24.4737,9.552854984558106,24.3827,9.590545984558105Q24.2917,9.628236984558106,24.1951,9.647451984558106Q24.0985,9.666666984558105,24,9.666666984558105L8,9.666666984558105Q7.9015086,9.666666984558105,7.80491,9.647451984558106Q7.708311,9.628236984558106,7.617317,9.590545984558105Q7.526322,9.552854984558106,7.44443,9.498136984558105Q7.362537,9.443417984558106,7.292893,9.373773984558106Q7.223249,9.304129984558106,7.16853,9.222236984558105Q7.113812,9.140344984558105,7.076121,9.049349984558106Q7.03843,8.958355984558105,7.019215,8.861756984558106Q7,8.765158384558106,7,8.666666984558105Q7,8.568175584558105,7.019215,8.471576984558105Q7.03843,8.374977984558106,7.076121,8.283983984558105Q7.113812,8.192988984558106,7.16853,8.111096984558106Q7.223249,8.029203984558105,7.292893,7.959559984558106Q7.362537,7.8899159845581055,7.44443,7.835196984558105Q7.526322,7.780478984558106,7.617317,7.742787984558105Q7.708311,7.705096984558105,7.80491,7.6858819845581055Q7.9015086,7.6666669845581055,8,7.6666669845581055Z" fill-rule="evenodd" fill="#222222" fill-opacity="1"/></g></g></svg>