<svg xmlns="http://www.w3.org/2000/svg" xmlns:xlink="http://www.w3.org/1999/xlink" fill="none" version="1.1" width="32" height="32" viewBox="0 0 32 32"><g><g style="opacity:0;"><rect x="0" y="0" width="32" height="32" rx="0" fill="#D8D8D8" fill-opacity="1"/></g><g><g><path d="M29,5L6,5L6,21L17,21C23.6274,21,29,15.6274,29,9L29,5ZM8,19L8,7L27,7L27,8.99999Q27,13.14213,24.0711,16.0711Q21.1421,19,17,19L8,19Z" fill-rule="evenodd" fill="#222222" fill-opacity="1"/></g><g><ellipse cx="10" cy="28" rx="2" ry="2" fill="#222222" fill-opacity="1"/></g><g><ellipse cx="24" cy="28" rx="2" ry="2" fill="#222222" fill-opacity="1"/></g></g><g><path d="M6,21Q6,20.9015086,6.019215,20.80491Q6.03843,20.708311,6.076121,20.617317Q6.113812,20.526322,6.16853,20.44443Q6.223249,20.362537,6.292893,20.292893Q6.362537,20.223249,6.44443,20.16853Q6.526322,20.113812,6.617317,20.076121Q6.708311,20.038429999999998,6.80491,20.019215Q6.9015086,20,7,20Q7.0984914,20,7.19509,20.019215Q7.291689,20.038429999999998,7.382683,20.076121Q7.473678,20.113812,7.55557,20.16853Q7.637463,20.223249,7.707107,20.292893Q7.776751,20.362537,7.83147,20.44443Q7.886188,20.526322,7.923879,20.617317Q7.96157,20.708311,7.980785,20.80491Q8,20.9015086,8,21L8,23L27,23Q27.0985,23,27.1951,23.01921Q27.2917,23.038429999999998,27.3827,23.07612Q27.4737,23.11381,27.5556,23.16853Q27.6375,23.22325,27.7071,23.29289Q27.7767,23.36254,27.8315,23.44443Q27.8862,23.52632,27.9239,23.61732Q27.9616,23.70831,27.9808,23.80491Q28,23.901510000000002,28,24Q28,24.098489999999998,27.9808,24.19509Q27.9616,24.29169,27.9239,24.38268Q27.8862,24.47368,27.8315,24.55557Q27.7767,24.63746,27.7071,24.70711Q27.6375,24.77675,27.5556,24.83147Q27.4737,24.88619,27.3827,24.92388Q27.2917,24.961570000000002,27.1951,24.98078Q27.0985,25,27,25L8,25Q7.171573,25,6.585787,24.41421Q6,23.82843,6,23L6,21Z" fill-rule="evenodd" fill="#222222" fill-opacity="1"/></g><g><path d="M2,3L6,3Q6.13928,3,6.27327,3.038062Q6.40725,3.076123,6.52573,3.149349Q6.64421,3.222575,6.73817,3.3253909999999998Q6.83214,3.428207,6.89443,3.552786L7.89443,5.55279Q8,5.76393,8,6Q8,6.09849,7.98078,6.19509Q7.96157,6.29169,7.92388,6.382680000000001Q7.88619,6.47368,7.83147,6.5555699999999995Q7.77675,6.63746,7.70711,6.70711Q7.63746,6.77675,7.55557,6.8314699999999995Q7.47368,6.88619,7.38268,6.9238800000000005Q7.29169,6.96157,7.19509,6.98078Q7.09849,7,7,7Q6.86072,7,6.72673,6.96194Q6.59275,6.9238800000000005,6.47427,6.85065Q6.35579,6.77743,6.26182,6.6746099999999995Q6.16786,6.57179,6.10557,6.44721L5.38197,5L2,5Q1.9015086,5,1.80491,4.980785Q1.7083110000000001,4.96157,1.617317,4.923879Q1.526322,4.886188,1.44443,4.83147Q1.362537,4.776751,1.2928929999999998,4.707107Q1.223249,4.637463,1.16853,4.55557Q1.113812,4.473678,1.076121,4.382683Q1.03843,4.291689,1.019215,4.19509Q1,4.0984914,1,4Q1,3.9015086,1.019215,3.80491Q1.03843,3.708311,1.076121,3.617317Q1.113812,3.526322,1.16853,3.44443Q1.223249,3.362537,1.2928929999999998,3.292893Q1.362537,3.223249,1.44443,3.16853Q1.526322,3.1138120000000002,1.617317,3.076121Q1.7083110000000001,3.03843,1.80491,3.019215Q1.9015086,3,2,3Z" fill-rule="evenodd" fill="#222222" fill-opacity="1"/></g></g></svg>