<svg xmlns="http://www.w3.org/2000/svg" xmlns:xlink="http://www.w3.org/1999/xlink" fill="none" version="1.1" width="32" height="32" viewBox="0 0 32 32"><g><g><path d="M2 11C2.000000000000001 6.029437251522858 6.02943725152286 2 11 2L21 2C25.97056274847714 2 30 6.02943725152286 30 11L30 21C30 25.97056274847714 25.97056274847714 30 21 30L11 30C6.02943725152286 30 2 25.97056274847714 2 21Z" fill="#444DFF" fill-opacity="1"/></g><g><path d="M22.9307,10.16113C21.6342,9.614335,20.265900000000002,9.224362,18.86,9.00097613C18.8335,8.99640542,18.8069,9.0081849,18.7942,9.0300564C18.6192,9.317033,18.4242,9.69125,18.2875,9.985879C16.772100000000002,9.774512,15.23061,9.774512,13.71518,9.985879C13.56308,9.658577,13.39143,9.339229,13.20102,9.0292912C13.18758,9.0082466,13.1614,8.99698781,13.13519,9.00097613C11.72924,9.223907,10.36084,9.613898,9.06448,10.16113C9.0535,10.16535,9.0442,10.17256,9.03781,10.18179C6.444554,13.73953,5.733741,17.20927,6.0828977,20.6354C6.0846123,20.6526,6.0939555,20.668300000000002,6.1087299999999995,20.679000000000002C7.6183499999999995,21.706200000000003,9.30706,22.4902,11.10275,22.997799999999998C11.12884,23.0045,11.15674,22.9957,11.17275,22.9756C11.557739999999999,22.493499999999997,11.901060000000001,21.9846,12.19439,21.4496C12.21189,21.419,12.195219999999999,21.3808,12.160219999999999,21.369300000000003C11.621400000000001,21.1797,11.099779999999999,20.9512,10.60027,20.6859C10.56137,20.6647,10.55791,20.6142,10.5936,20.5887C10.698599999999999,20.516,10.80359,20.441000000000003,10.903590000000001,20.3652C10.92187,20.3515,10.94712,20.3485,10.968589999999999,20.357599999999998C14.24099,21.7297,17.7851,21.7297,21.0191,20.357599999999998C21.0408,20.3482,21.066499999999998,20.351100000000002,21.085,20.3652C21.185000000000002,20.4402,21.289099999999998,20.516,21.395,20.5887C21.4316,20.6132,21.4283,20.6652,21.39,20.6859C20.8916,20.953699999999998,20.3733,21.1795,19.8292,21.368499999999997C19.794,21.3811,19.7782,21.418599999999998,19.795,21.4496C20.095,21.983800000000002,20.438299999999998,22.4927,20.8158,22.9756C20.831699999999998,22.9958,20.8599,23.0044,20.8858,22.997C22.6845,22.4911,24.376,21.706899999999997,25.8873,20.6782C25.9022,20.668599999999998,25.9119,20.6535,25.914,20.6369C26.3306,16.67511,25.2157,13.23369,22.9566,10.18332C22.9514,10.17299,22.9422,10.16481,22.9307,10.16036L22.9307,10.16113ZM12.68354,18.54926C11.69857,18.54926,10.88609,17.71817,10.88609,16.69807C10.88609,15.677959999999999,11.68357,14.84764,12.68354,14.84764C13.69184,14.84764,14.49682,15.68562,14.48099,16.6996C14.48099,17.71894,13.684339999999999,18.55002,12.68354,18.55002L12.68354,18.54926ZM19.3292,18.54926C18.343400000000003,18.54926,17.5317,17.71817,17.5317,16.69807C17.5317,15.677959999999999,18.3275,14.846879999999999,19.3292,14.846879999999999C20.3375,14.846879999999999,21.1425,15.68485,21.1266,16.69883C21.1266,17.71817,20.3383,18.54926,19.3292,18.54926Z" fill="#FFFFFF" fill-opacity="1"/></g></g></svg>